HIERARCHY
ROOT root
{
	OFFSET 0.000000 0.000000 0.000000
	CHANNELS 6 Xposition Yposition Zposition Zrotation Yrotation Xrotation
	JOINT lhip
	{
		OFFSET 0.058581 -0.082280 -0.017664
		CHANNELS 3 Zrotation Yrotation Xrotation
		JOINT lknee
		{
			OFFSET 0.043451 -0.386469 0.008037
			CHANNELS 3 Zrotation Yrotation Xrotation
			JOINT lankle
			{
				OFFSET -0.014790 -0.426874 -0.037428
				CHANNELS 3 Zrotation Yrotation Xrotation
				JOINT ltoe
				{
					OFFSET 0.041054 -0.060286 0.122042
					CHANNELS 3 Zrotation Yrotation Xrotation
					End Site
					{
						OFFSET 0.000000 0.000000 0.000000
					}
				}
			}
		}
	}
	JOINT rhip
	{
		OFFSET -0.060310 -0.090513 -0.013543
		CHANNELS 3 Zrotation Yrotation Xrotation
		JOINT rknee
		{
			OFFSET -0.043257 -0.383688 -0.004843
			CHANNELS 3 Zrotation Yrotation Xrotation
			JOINT rankle
			{
				OFFSET 0.019056 -0.420046 -0.034562
				CHANNELS 3 Zrotation Yrotation Xrotation
				JOINT rtoe
				{
					OFFSET -0.034840 -0.062106 0.130323
					CHANNELS 3 Zrotation Yrotation Xrotation
					End Site
					{
						OFFSET 0.000000 0.000000 0.000000
					}
				}
			}
		}
	}
	JOINT lowerback
	{
		OFFSET 0.004439 0.124404 -0.038385
		CHANNELS 3 Zrotation Yrotation Xrotation
		JOINT upperback
		{
			OFFSET 0.004488 0.137956 0.026820
			CHANNELS 3 Zrotation Yrotation Xrotation
			JOINT chest
			{
				OFFSET -0.002265 0.056032 0.002855
				CHANNELS 3 Zrotation Yrotation Xrotation
				JOINT lowerneck
				{
					OFFSET -0.013390 0.211636 -0.033468
					CHANNELS 3 Zrotation Yrotation Xrotation
					JOINT upperneck
					{
						OFFSET 0.010113 0.088937 0.050410
						CHANNELS 3 Zrotation Yrotation Xrotation
						End Site
						{
							OFFSET 0.000000 0.000000 0.000000
						}
					}
				}
				JOINT lclavicle
				{
					OFFSET 0.071702 0.114000 -0.018898
					CHANNELS 3 Zrotation Yrotation Xrotation
					JOINT lshoulder
					{
						OFFSET 0.122921 0.045205 -0.019046
						CHANNELS 3 Zrotation Yrotation Xrotation
						JOINT lelbow
						{
							OFFSET 0.255332 -0.015649 -0.022946
							CHANNELS 3 Zrotation Yrotation Xrotation
							JOINT lwrist
							{
								OFFSET 0.265709 0.012698 -0.007375
								CHANNELS 3 Zrotation Yrotation Xrotation
								End Site
								{
									OFFSET 0.000000 0.000000 0.000000
								}
							}
						}
					}
				}
				JOINT rclavicle
				{
					OFFSET -0.082954 0.112472 -0.023707
					CHANNELS 3 Zrotation Yrotation Xrotation
					JOINT rshoulder
					{
						OFFSET -0.113228 0.046853 -0.008472
						CHANNELS 3 Zrotation Yrotation Xrotation
						JOINT relbow
						{
							OFFSET -0.260127 -0.014369 -0.031269
							CHANNELS 3 Zrotation Yrotation Xrotation
							JOINT rwrist
							{
								OFFSET -0.269108 0.006794 -0.006027
								CHANNELS 3 Zrotation Yrotation Xrotation
								End Site
								{
									OFFSET 0.000000 0.000000 0.000000
								}
							}
						}
					}
				}
			}
		}
	}
}
MOTION
Frames: 14
Frame Time: 0.033333
0.569285 0.231958 0.993963 90.472313 2.871975 98.814523 5.907726 3.804550 -5.302587 2.986399 -0.003064 -6.360529 -1.632193 7.759935 -3.398895 0.000000 -0.000000 0.000000 -1.599856 -2.341967 -8.446205 -1.726574 -1.919303 1.377612 5.996566 -5.656399 -3.728644 0.000000 -0.000000 0.000000 -0.641587 2.050666 -3.720294 3.943322 -2.025161 5.505889 0.422539 3.468756 -8.940459 -0.243827 -7.723327 1.731667 4.762667 -1.739709 -2.636066 -20.891361 -3.904747 -2.558920 -61.761423 -13.296248 28.448796 86.513496 -81.800639 -57.392638 30.407424 -4.553832 -7.478411 20.457133 6.910842 -1.080895 42.453864 30.149293 10.264213 -52.771063 68.789121 -38.340644 -32.041393 3.385183 -9.117371 
0.570283 0.231370 0.993744 90.707667 2.824478 98.505471 5.903498 3.593902 -5.005521 2.998422 -0.074722 -6.236467 -1.417119 7.653742 -3.461223 0.000000 -0.000000 0.000000 -1.674585 -2.274890 -8.001423 -1.693764 -2.265909 1.437663 6.083819 -5.551922 -3.987929 0.000000 -0.000000 0.000000 -0.865217 1.948788 -3.424010 4.062843 -2.276024 5.248204 0.432625 3.123852 -8.849822 -0.275952 -6.477508 1.569168 4.429983 -1.057300 -2.138852 -20.809082 -3.497552 -2.210218 -62.066268 -13.666370 28.527132 86.279882 -81.202676 -57.296962 30.189364 -4.456591 -7.993802 20.993570 5.533105 -1.032875 46.513614 27.381756 12.822492 -63.032361 73.724265 -48.022974 -32.058154 3.490715 -8.999299 
0.570281 0.231454 0.993319 90.284124 2.795284 98.231238 5.740830 3.543056 -4.596730 3.113988 0.148065 -6.378791 -1.184167 7.840497 -3.300970 0.000000 -0.000000 0.000000 -1.781399 -1.812598 -7.964731 -1.701300 -2.235249 1.755053 5.968193 -5.528586 -4.142101 0.000000 -0.000000 0.000000 -0.393089 1.681011 -2.417399 3.646055 -1.636350 4.438500 0.166864 2.715405 -9.163970 0.432617 -5.400931 0.564695 2.724610 -0.546411 -0.438961 -20.755496 -2.960930 -1.909511 -62.166965 -13.662412 28.523099 86.571552 -80.688465 -57.389843 28.970038 -5.025816 -8.436262 21.702112 4.238263 -0.727175 50.451661 24.954394 15.214797 -71.524392 76.622650 -55.011669 -27.536251 4.015253 -9.299597 
0.572044 0.231768 0.992898 90.406934 2.922267 98.280744 5.813677 3.583004 -4.574904 3.183252 -0.061087 -6.406592 -1.246126 7.854600 -3.379446 0.000000 -0.000000 0.000000 -1.664383 -2.033754 -7.826287 -1.669579 -2.215390 1.583922 6.076916 -5.493118 -4.235907 0.000000 -0.000000 0.000000 -0.386977 1.915953 -3.291192 3.812954 -2.211150 4.951954 0.184337 2.580271 -9.192795 -0.065325 -4.275486 1.136683 2.694153 0.299824 -0.382131 -20.991369 -2.972003 -1.499056 -62.008414 -13.698303 27.967091 86.830307 -80.971817 -57.687452 29.509679 -4.684911 -7.948443 22.265389 4.013803 -0.245194 51.666932 23.495863 16.077486 -73.396090 79.614822 -56.160793 -28.172027 3.474779 -10.273735 
0.572653 0.231272 0.992960 90.085824 3.016195 98.125583 5.939893 3.813347 -4.308296 3.111715 -0.105996 -6.426141 -1.361100 7.965397 -3.516133 0.000000 -0.000000 0.000000 -1.538964 -1.991224 -7.718601 -1.755734 -2.130698 1.638772 6.150131 -5.268449 -4.336397 0.000000 -0.000000 0.000000 -0.812660 1.912927 -3.693906 4.160298 -2.292661 5.361397 0.409243 2.707525 -9.303817 -0.531602 -3.070483 1.809975 2.769081 1.124107 -0.638968 -21.019112 -3.050410 -1.395465 -61.879463 -13.595297 27.658975 86.980802 -81.448731 -58.166530 30.350492 -4.651840 -7.813884 22.954362 4.307596 0.167115 51.883652 23.045611 16.657286 -71.262069 81.816858 -54.413991 -31.388180 4.577341 -8.951017 
0.572617 0.231897 0.992334 89.682100 3.143340 97.950259 5.973622 4.036450 -4.021190 3.146502 -0.149450 -6.481593 -1.398158 8.141179 -3.771119 0.000000 -0.000000 0.000000 -1.539514 -1.978115 -7.709273 -1.717026 -2.032634 1.821402 6.282953 -4.977563 -4.448339 0.000000 -0.000000 0.000000 -1.165245 1.578064 -4.274497 4.528450 -2.415952 5.370659 0.840361 3.245104 -8.604503 -1.167510 -2.409860 2.194836 2.469515 2.230912 -0.370512 -21.183067 -3.637572 -1.602219 -61.831083 -13.171024 27.205668 87.697633 -81.749903 -59.287151 30.803181 -4.835721 -7.915808 23.187612 5.605073 0.713139 49.795851 23.929296 16.322116 -66.903815 83.466087 -49.853604 -34.312458 6.816495 -5.770962 
0.571785 0.232781 0.992001 89.301360 3.299804 97.888779 6.027515 4.086526 -3.923219 3.195519 -0.016460 -6.517678 -1.413024 8.279379 -3.777404 0.000000 -0.000000 0.000000 -1.478768 -1.912385 -7.836215 -1.712707 -1.936752 1.908124 6.476735 -4.709857 -4.397726 0.000000 -0.000000 0.000000 -0.998855 1.650980 -4.322504 4.484565 -2.373277 5.079540 0.834660 3.437261 -8.534488 -1.333156 -1.923833 2.514638 2.338198 3.548908 0.544569 -21.110837 -4.101331 -1.504875 -61.675124 -12.787853 26.733776 88.607114 -81.949828 -60.068406 30.263430 -5.337180 -8.318946 23.195085 6.352418 1.082076 48.115419 25.339235 15.573926 -63.288921 84.436441 -44.597833 -34.534750 10.132395 -1.023244 
0.570785 0.233808 0.991979 88.892921 3.381690 97.882002 5.982259 4.165592 -3.877421 3.248360 0.170053 -6.590406 -1.524236 8.379918 -3.785905 0.000000 -0.000000 0.000000 -1.463097 -1.902145 -8.029364 -1.747694 -1.703915 1.959233 6.675093 -4.521305 -4.376632 0.000000 -0.000000 0.000000 -0.806206 1.831832 -4.287295 4.258765 -2.283427 4.729947 0.714682 3.624166 -8.689929 -1.719968 -1.944682 2.770636 2.461247 4.397357 1.239937 -21.056567 -4.568564 -1.608177 -61.350166 -12.192968 26.211167 88.497321 -82.386614 -59.968119 30.345685 -5.768199 -8.514528 23.051835 7.146464 1.330582 44.912348 27.262996 13.950884 -52.575848 85.760066 -32.432169 -35.891750 13.825426 3.626895 
0.569601 0.235006 0.992065 88.548617 3.406034 97.721641 5.885533 4.240663 -3.649556 3.279071 0.231540 -6.752656 -1.621257 8.560674 -3.821431 0.000000 -0.000000 0.000000 -1.564422 -1.905923 -8.017424 -1.718390 -1.542818 1.961186 6.869654 -4.316649 -4.335898 0.000000 -0.000000 0.000000 -0.677285 1.999104 -4.195011 3.970424 -2.162349 4.421995 0.657420 3.746968 -8.609737 -2.259058 -2.079361 3.189431 2.631182 5.379071 1.391633 -21.235431 -5.261812 -1.869652 -60.819213 -11.482209 25.589091 89.008312 -82.633120 -60.529779 29.910069 -6.218237 -8.632312 22.603178 8.217432 1.277327 40.655474 29.054214 11.634694 -39.698872 87.139430 -18.387899 -35.235446 17.008303 7.977265 
0.568661 0.236020 0.992059 88.543208 3.420261 97.753896 5.853080 4.189650 -3.735510 3.263051 0.219896 -6.780488 -1.744033 8.668073 -3.860219 0.000000 -0.000000 0.000000 -1.584296 -2.055014 -8.160366 -1.752044 -1.498891 2.009194 7.051020 -4.189999 -4.365748 0.000000 -0.000000 0.000000 -0.504530 1.996373 -4.395168 3.587265 -2.201505 4.178425 0.525858 3.831327 -8.635699 -2.862459 -2.340024 3.764950 2.981007 6.450714 1.698879 -21.316628 -5.845575 -2.085358 -60.393435 -10.677751 24.899312 89.005380 -82.913610 -60.750627 29.753754 -6.547963 -8.742748 21.802528 9.059140 1.204338 36.236061 30.711022 9.020116 5.009347 88.371619 27.032017 -34.569614 20.201749 12.254898 
0.567859 0.236855 0.991990 88.793550 3.412329 97.945800 5.894032 3.956880 -4.075351 3.136980 0.211068 -6.706811 -1.844314 8.667054 -3.914443 0.000000 -0.000000 0.000000 -1.572676 -2.244407 -8.433296 -1.810894 -1.646247 2.081424 7.095941 -4.008502 -4.435714 0.000000 -0.000000 0.000000 -0.386365 1.823349 -4.860722 3.202313 -2.384302 4.206658 0.437397 3.892159 -8.752582 -3.010585 -2.065961 4.444774 3.262873 8.482652 2.145694 -21.612549 -6.238546 -2.489209 -59.802156 -9.795186 24.343002 88.717124 -83.180143 -60.986453 29.459717 -7.097391 -8.648443 20.618012 9.569156 1.010056 32.119144 32.270528 6.522953 61.999835 87.679223 84.140644 -33.019682 22.972482 15.877054 
0.567069 0.237636 0.992035 88.837232 3.390956 97.893997 5.855054 3.934931 -4.033330 3.104810 0.199035 -6.801273 -2.013657 8.687089 -3.980388 0.000000 -0.000000 0.000000 -1.616044 -2.363224 -8.503720 -1.824376 -1.678961 2.225457 7.082154 -3.841852 -4.564076 0.000000 -0.000000 0.000000 -0.344283 1.836386 -4.981556 2.857821 -2.393707 4.196828 0.381824 3.961366 -8.943287 -3.716987 -2.518591 4.971912 3.815888 9.750838 2.525193 -21.795263 -6.708389 -2.965464 -59.365775 -8.957635 24.248335 87.507602 -83.378657 -60.599078 30.325049 -7.221298 -8.012193 19.437371 10.420506 0.732670 26.407079 33.496231 3.483315 79.426849 85.362450 100.152115 -33.841295 26.298188 18.779533 
0.566426 0.238142 0.992048 89.003728 3.388742 97.709716 5.856082 3.922743 -3.886021 3.107404 -0.117006 -6.847341 -2.117171 8.914214 -4.003953 0.000000 -0.000000 0.000000 -1.588143 -2.544019 -8.320857 -1.860912 -1.506848 2.219033 7.072809 -3.991971 -4.585328 0.000000 -0.000000 0.000000 -0.170250 1.802523 -4.847256 2.406530 -2.519759 3.856153 0.303247 4.013320 -8.907326 -3.630796 -2.876001 5.781614 3.757553 11.338496 2.843049 -21.978621 -7.031156 -3.082124 -58.917992 -8.344894 23.917529 87.484453 -83.467876 -60.425558 29.966759 -7.313478 -8.375163 17.701356 10.755625 0.238757 23.289273 34.342143 1.931096 84.040971 84.331366 106.174687 -32.714883 26.881800 20.215380 
0.565753 0.238390 0.992029 89.095396 3.426709 97.645447 5.883831 3.891637 -3.875894 3.141405 -0.276216 -6.844791 -2.279561 9.056551 -4.050761 0.000000 -0.000000 0.000000 -1.524822 -2.616472 -8.279999 -1.894705 -1.398029 2.205812 7.092797 -4.097255 -4.610583 0.000000 -0.000000 0.000000 -0.013645 1.726698 -4.911274 2.034344 -2.609164 3.661562 0.229243 4.242614 -8.991281 -3.937097 -3.403010 6.591537 3.913995 12.514383 3.047167 -22.096753 -7.509766 -3.147119 -58.592127 -7.727354 23.727160 87.133698 -83.450335 -60.240486 30.172544 -7.239316 -8.486653 16.002674 11.270018 -0.371174 19.955699 34.801534 0.131848 86.333138 83.058833 108.508417 -32.111850 27.511382 20.880587 
